<svg width="89" height="118" viewBox="0 0 89 118" fill="none" xmlns="http://www.w3.org/2000/svg">
<ellipse cx="44.106" cy="99.6324" rx="33.0796" ry="17.7212" fill="#FFEDAB"/>
<path d="M0 67.8737V25.0159C0 15.9932 7.21622 15.9931 12.027 18.2488L21.6486 22.7601C25.6577 17.4969 34.6378 6.06816 38.4865 2.45907C43.2973 -2.05228 48.1081 0.203394 52.9189 4.71475C57.7297 9.2261 72.1621 27.2714 79.3783 36.2942L79.3784 36.2943C86.5946 45.317 89 54.3397 89 67.8737C89 81.4078 72.1622 103.965 43.2973 103.965C14.4324 103.965 0 79.1521 0 67.8737Z" fill="#FF9600"/>
<path d="M28.8644 61.1067C32.7131 55.6931 38.4861 48.3246 40.8915 45.317C41.6933 43.8132 44.2592 41.7079 48.1079 45.317C52.9187 49.8283 57.7295 58.8511 60.1349 61.1067C62.5403 63.3624 64.9457 72.3851 60.1349 79.1522C55.3241 85.9192 48.1079 88.1749 43.2971 88.1749C38.4863 88.1749 31.2698 83.6635 28.8644 79.1522C26.459 74.6408 24.0536 67.8738 28.8644 61.1067Z" fill="#FFC800"/>
</svg>
